# xmcd
#
# Track frame offsets: 
#        150
#        33556
#        56853
#        78335
#        103779
#        127406
#        149269
#        179249
#        201209
#        225988
#        252627
#        277870
#
# Disc length: 3947 seconds
#
# Revision: 1
# Processed by: cddbd v1.5.2PL0 Copyright (c) Steve Scherf et al.
# Submitted via: ExactAudioCopyFreeDBPlugin 1.0
#
DISCID=b90f690c
DTITLE=Till Brönner - Oceana
DYEAR=2007
DGENRE=Jazz
TTITLE0=Bumpin'
TTITLE1=Love Theme from 'Chinatown'
TTITLE2=This Guy's in Love
TTITLE3=In My Secret Life
TTITLE4=The Peacocks
TTITLE5=I'm So Lonesome I Could Cry
TTITLE6=Subrosa
TTITLE7=Pra Dizer Adeus
TTITLE8=It Never Entered My Mind
TTITLE9=River Man
TTITLE10=A Distant Episode
TTITLE11=Tarde
EXTD=YEAR: 2007
EXTT0=
EXTT1=
EXTT2=
EXTT3=
EXTT4=
EXTT5=
EXTT6=
EXTT7=
EXTT8=
EXTT9=
EXTT10=
EXTT11=
PLAYORDER=
